<?xml version="1.0" encoding="UTF-8" standalone="no"?>
<!DOCTYPE svg PUBLIC "-//W3C//DTD SVG 1.1//EN"
 "http://www.w3.org/Graphics/SVG/1.1/DTD/svg11.dtd">
<!-- Generated by graphviz version 2.43.0 (0)
 -->
<!-- Title: G Pages: 1 -->
<svg width="1003pt" height="436pt"
 viewBox="0.00 0.00 1003.46 436.13" xmlns="http://www.w3.org/2000/svg" xmlns:xlink="http://www.w3.org/1999/xlink">
<g id="graph0" class="graph" transform="scale(1 1) rotate(0) translate(4 432.13)">
<title>G</title><style>.edge>path:hover{stroke-width:8}</style>
<polygon fill="white" stroke="transparent" points="-4,4 -4,-432.13 999.46,-432.13 999.46,4 -4,4"/>
<!-- comfoclime -->
<g id="node1" class="node">
<title>comfoclime</title><style>.edge>path:hover{stroke-width:8}</style>
<polygon fill="blue" stroke="black" points="353.73,-36 279.73,-36 279.73,0 353.73,0 353.73,-36"/>
<text text-anchor="middle" x="316.73" y="-15.5" font-family="Helvetica,sans-Serif" font-size="10.00" fill="white">comfoclime</text>
</g>
<!-- comfoclime_access_tracker -->
<g id="node2" class="node">
<title>comfoclime_access_tracker</title><style>.edge>path:hover{stroke-width:8}</style>
<ellipse fill="#db2f2f" stroke="black" cx="311.73" cy="-250.07" rx="62.87" ry="21.43"/>
<text text-anchor="middle" x="311.73" y="-253.07" font-family="Helvetica,sans-Serif" font-size="10.00" fill="#ffffff">comfoclime.</text>
<text text-anchor="middle" x="311.73" y="-242.07" font-family="Helvetica,sans-Serif" font-size="10.00" fill="#ffffff">access_tracker</text>
</g>
<!-- comfoclime_access_tracker&#45;&gt;comfoclime -->
<g id="edge1" class="edge">
<title>comfoclime_access_tracker&#45;&gt;comfoclime</title><style>.edge>path:hover{stroke-width:8}</style>
<path fill="none" stroke="black" d="M253.66,-241.79C214,-233.11 166.27,-214.13 152.73,-172.64"/>
<path fill="none" stroke="black" d="M152.73,-170.64C138.88,-128.2 142.78,-105.99 171.73,-72 196.11,-43.37 237.32,-30.2 269.59,-24.15"/>
<polygon fill="#db2f2f" stroke="black" points="270.45,-27.55 279.72,-22.42 269.28,-20.65 270.45,-27.55"/>
</g>
<!-- comfoclime_coordinator -->
<g id="node8" class="node">
<title>comfoclime_coordinator</title><style>.edge>path:hover{stroke-width:8}</style>
<ellipse fill="#db0505" stroke="black" cx="568.73" cy="-171.64" rx="54.39" ry="21.43"/>
<text text-anchor="middle" x="568.73" y="-174.64" font-family="Helvetica,sans-Serif" font-size="10.00" fill="#ffffff">comfoclime.</text>
<text text-anchor="middle" x="568.73" y="-163.64" font-family="Helvetica,sans-Serif" font-size="10.00" fill="#ffffff">coordinator</text>
</g>
<!-- comfoclime_access_tracker&#45;&gt;comfoclime_coordinator -->
<g id="edge2" class="edge">
<title>comfoclime_access_tracker&#45;&gt;comfoclime_coordinator</title><style>.edge>path:hover{stroke-width:8}</style>
<path fill="none" stroke="black" d="M357.67,-235.4C402.42,-222.09 470.34,-201.9 516.97,-188.03"/>
<polygon fill="#db2f2f" stroke="black" points="518,-191.38 526.58,-185.17 516,-184.67 518,-191.38"/>
</g>
<!-- comfoclime_sensor -->
<g id="node15" class="node">
<title>comfoclime_sensor</title><style>.edge>path:hover{stroke-width:8}</style>
<ellipse fill="#964040" stroke="black" cx="234.73" cy="-93.21" rx="54.39" ry="21.43"/>
<text text-anchor="middle" x="234.73" y="-96.21" font-family="Helvetica,sans-Serif" font-size="10.00" fill="#ffffff">comfoclime.</text>
<text text-anchor="middle" x="234.73" y="-85.21" font-family="Helvetica,sans-Serif" font-size="10.00" fill="#ffffff">sensor</text>
</g>
<!-- comfoclime_access_tracker&#45;&gt;comfoclime_sensor -->
<g id="edge3" class="edge">
<title>comfoclime_access_tracker&#45;&gt;comfoclime_sensor</title><style>.edge>path:hover{stroke-width:8}</style>
<path fill="none" stroke="black" d="M152.73,-170.64C144.83,-146.44 166.41,-127.02 189.4,-113.81"/>
<polygon fill="#db2f2f" stroke="black" points="191.08,-116.88 198.22,-109.06 187.76,-110.72 191.08,-116.88"/>
</g>
<!-- comfoclime_api_decorators -->
<g id="node3" class="node">
<title>comfoclime_api_decorators</title><style>.edge>path:hover{stroke-width:8}</style>
<ellipse fill="#c04040" stroke="black" cx="518.73" cy="-328.49" rx="62.87" ry="21.43"/>
<text text-anchor="middle" x="518.73" y="-331.49" font-family="Helvetica,sans-Serif" font-size="10.00" fill="#ffffff">comfoclime.</text>
<text text-anchor="middle" x="518.73" y="-320.49" font-family="Helvetica,sans-Serif" font-size="10.00" fill="#ffffff">api_decorators</text>
</g>
<!-- comfoclime_comfoclime_api -->
<g id="node5" class="node">
<title>comfoclime_comfoclime_api</title><style>.edge>path:hover{stroke-width:8}</style>
<ellipse fill="#d10505" stroke="black" cx="647.73" cy="-250.07" rx="67.35" ry="21.43"/>
<text text-anchor="middle" x="647.73" y="-253.07" font-family="Helvetica,sans-Serif" font-size="10.00" fill="#ffffff">comfoclime.</text>
<text text-anchor="middle" x="647.73" y="-242.07" font-family="Helvetica,sans-Serif" font-size="10.00" fill="#ffffff">comfoclime_api</text>
</g>
<!-- comfoclime_api_decorators&#45;&gt;comfoclime_comfoclime_api -->
<g id="edge4" class="edge">
<title>comfoclime_api_decorators&#45;&gt;comfoclime_comfoclime_api</title><style>.edge>path:hover{stroke-width:8}</style>
<path fill="none" stroke="black" d="M548.65,-309.77C566.38,-299.26 589.07,-285.82 608.25,-274.45"/>
<polygon fill="#c04040" stroke="black" points="610.25,-277.33 617.07,-269.23 606.69,-271.31 610.25,-277.33"/>
</g>
<!-- comfoclime_climate -->
<g id="node4" class="node">
<title>comfoclime_climate</title><style>.edge>path:hover{stroke-width:8}</style>
<polygon fill="blue" stroke="black" points="967.23,-111.21 890.23,-111.21 890.23,-75.21 967.23,-75.21 967.23,-111.21"/>
<text text-anchor="middle" x="928.73" y="-96.21" font-family="Helvetica,sans-Serif" font-size="10.00" fill="white">comfoclime.</text>
<text text-anchor="middle" x="928.73" y="-85.21" font-family="Helvetica,sans-Serif" font-size="10.00" fill="white">climate</text>
</g>
<!-- comfoclime_climate&#45;&gt;comfoclime -->
<g id="edge5" class="edge">
<title>comfoclime_climate&#45;&gt;comfoclime</title><style>.edge>path:hover{stroke-width:8}</style>
<path fill="none" stroke="black" d="M892.16,-75.2C888.68,-73.98 885.17,-72.88 881.73,-72 694.29,-24.17 462.01,-18.53 363.93,-18.5"/>
<polygon fill="blue" stroke="black" points="363.75,-15 353.76,-18.52 363.76,-22 363.75,-15"/>
</g>
<!-- comfoclime_comfoclime_api&#45;&gt;comfoclime -->
<g id="edge6" class="edge">
<title>comfoclime_comfoclime_api&#45;&gt;comfoclime</title><style>.edge>path:hover{stroke-width:8}</style>
<path fill="none" stroke="black" d="M707.24,-239.92C823.68,-219.72 1063.06,-165.55 976.73,-72 935.37,-27.19 509.14,-20.25 364.46,-19.19"/>
<polygon fill="#d10505" stroke="black" points="364.17,-15.69 354.14,-19.12 364.12,-22.69 364.17,-15.69"/>
</g>
<!-- comfoclime_comfoclime_api&#45;&gt;comfoclime_climate -->
<g id="edge7" class="edge">
<title>comfoclime_comfoclime_api&#45;&gt;comfoclime_climate</title><style>.edge>path:hover{stroke-width:8}</style>
<path fill="none" stroke="black" d="M706.83,-239.69C752.22,-229.82 814.01,-210.25 855.73,-172.64"/>
<path fill="none" stroke="black" d="M855.73,-170.64C873.83,-154.32 892.8,-134.36 906.87,-118.93"/>
<polygon fill="#d10505" stroke="black" points="909.64,-121.08 913.74,-111.31 904.44,-116.39 909.64,-121.08"/>
</g>
<!-- comfoclime_comfoclime_api&#45;&gt;comfoclime_coordinator -->
<g id="edge8" class="edge">
<title>comfoclime_comfoclime_api&#45;&gt;comfoclime_coordinator</title><style>.edge>path:hover{stroke-width:8}</style>
<path fill="none" stroke="black" d="M627.79,-229.78C618.08,-220.39 606.26,-208.95 595.75,-198.78"/>
<polygon fill="#d10505" stroke="black" points="598,-196.09 588.38,-191.65 593.13,-201.12 598,-196.09"/>
</g>
<!-- comfoclime_fan -->
<g id="node10" class="node">
<title>comfoclime_fan</title><style>.edge>path:hover{stroke-width:8}</style>
<ellipse fill="#9d4343" stroke="black" cx="817.73" cy="-93.21" rx="54.99" ry="18"/>
<text text-anchor="middle" x="817.73" y="-90.71" font-family="Helvetica,sans-Serif" font-size="10.00" fill="#ffffff">comfoclime.fan</text>
</g>
<!-- comfoclime_comfoclime_api&#45;&gt;comfoclime_fan -->
<g id="edge9" class="edge">
<title>comfoclime_comfoclime_api&#45;&gt;comfoclime_fan</title><style>.edge>path:hover{stroke-width:8}</style>
<path fill="none" stroke="black" d="M652.73,-170.64C654.2,-157.51 724.35,-128.85 772.7,-110.6"/>
<polygon fill="#d10505" stroke="black" points="774.21,-113.77 782.35,-106.99 771.76,-107.22 774.21,-113.77"/>
</g>
<!-- comfoclime_number -->
<g id="node12" class="node">
<title>comfoclime_number</title><style>.edge>path:hover{stroke-width:8}</style>
<ellipse fill="#9d4343" stroke="black" cx="525.73" cy="-93.21" rx="54.39" ry="21.43"/>
<text text-anchor="middle" x="525.73" y="-96.21" font-family="Helvetica,sans-Serif" font-size="10.00" fill="#ffffff">comfoclime.</text>
<text text-anchor="middle" x="525.73" y="-85.21" font-family="Helvetica,sans-Serif" font-size="10.00" fill="#ffffff">number</text>
</g>
<!-- comfoclime_comfoclime_api&#45;&gt;comfoclime_number -->
<g id="edge10" class="edge">
<title>comfoclime_comfoclime_api&#45;&gt;comfoclime_number</title><style>.edge>path:hover{stroke-width:8}</style>
<path fill="none" stroke="black" d="M648.55,-228.58C649.29,-213.17 650.6,-191.54 652.73,-172.64"/>
<path fill="none" stroke="black" d="M652.73,-170.64C654.9,-151.33 610.32,-128.21 573.39,-112.49"/>
<polygon fill="#d10505" stroke="black" points="574.28,-109.07 563.71,-108.46 571.59,-115.54 574.28,-109.07"/>
</g>
<!-- comfoclime_select -->
<g id="node14" class="node">
<title>comfoclime_select</title><style>.edge>path:hover{stroke-width:8}</style>
<ellipse fill="#9d4343" stroke="black" cx="652.73" cy="-93.21" rx="54.39" ry="21.43"/>
<text text-anchor="middle" x="652.73" y="-96.21" font-family="Helvetica,sans-Serif" font-size="10.00" fill="#ffffff">comfoclime.</text>
<text text-anchor="middle" x="652.73" y="-85.21" font-family="Helvetica,sans-Serif" font-size="10.00" fill="#ffffff">select</text>
</g>
<!-- comfoclime_comfoclime_api&#45;&gt;comfoclime_select -->
<g id="edge11" class="edge">
<title>comfoclime_comfoclime_api&#45;&gt;comfoclime_select</title><style>.edge>path:hover{stroke-width:8}</style>
<path fill="none" stroke="black" d="M652.73,-170.64C654.41,-155.61 654.6,-138.82 654.29,-124.81"/>
<polygon fill="#d10505" stroke="black" points="657.78,-124.6 653.96,-114.72 650.78,-124.82 657.78,-124.6"/>
</g>
<!-- comfoclime_comfoclime_api&#45;&gt;comfoclime_sensor -->
<g id="edge12" class="edge">
<title>comfoclime_comfoclime_api&#45;&gt;comfoclime_sensor</title><style>.edge>path:hover{stroke-width:8}</style>
<path fill="none" stroke="black" d="M581.94,-245.23C492.83,-238.94 339.6,-223.88 293.73,-192.85 269.54,-176.49 253.72,-146.6 244.61,-124"/>
<polygon fill="#d10505" stroke="black" points="247.83,-122.61 241,-114.51 241.29,-125.1 247.83,-122.61"/>
</g>
<!-- comfoclime_switch -->
<g id="node16" class="node">
<title>comfoclime_switch</title><style>.edge>path:hover{stroke-width:8}</style>
<ellipse fill="#9d4343" stroke="black" cx="398.73" cy="-93.21" rx="54.39" ry="21.43"/>
<text text-anchor="middle" x="398.73" y="-96.21" font-family="Helvetica,sans-Serif" font-size="10.00" fill="#ffffff">comfoclime.</text>
<text text-anchor="middle" x="398.73" y="-85.21" font-family="Helvetica,sans-Serif" font-size="10.00" fill="#ffffff">switch</text>
</g>
<!-- comfoclime_comfoclime_api&#45;&gt;comfoclime_switch -->
<g id="edge13" class="edge">
<title>comfoclime_comfoclime_api&#45;&gt;comfoclime_switch</title><style>.edge>path:hover{stroke-width:8}</style>
<path fill="none" stroke="black" d="M599.93,-235.05C571.35,-225.51 535.03,-211.26 505.73,-192.85 473.9,-172.86 442.94,-142.81 422.58,-121.13"/>
<polygon fill="#d10505" stroke="black" points="424.94,-118.52 415.58,-113.55 419.8,-123.27 424.94,-118.52"/>
</g>
<!-- comfoclime_config_flow -->
<g id="node6" class="node">
<title>comfoclime_config_flow</title><style>.edge>path:hover{stroke-width:8}</style>
<ellipse fill="#b83d3d" stroke="black" cx="70.73" cy="-93.21" rx="54.39" ry="21.43"/>
<text text-anchor="middle" x="70.73" y="-96.21" font-family="Helvetica,sans-Serif" font-size="10.00" fill="#ffffff">comfoclime.</text>
<text text-anchor="middle" x="70.73" y="-85.21" font-family="Helvetica,sans-Serif" font-size="10.00" fill="#ffffff">config_flow</text>
</g>
<!-- comfoclime_config_flow&#45;&gt;comfoclime -->
<g id="edge14" class="edge">
<title>comfoclime_config_flow&#45;&gt;comfoclime</title><style>.edge>path:hover{stroke-width:8}</style>
<path fill="none" stroke="black" d="M112.74,-79.71C156.46,-66.7 224.76,-46.37 270.12,-32.87"/>
<polygon fill="#b83d3d" stroke="black" points="271.13,-36.22 279.72,-30.01 269.13,-29.51 271.13,-36.22"/>
</g>
<!-- comfoclime_constants -->
<g id="node7" class="node">
<title>comfoclime_constants</title><style>.edge>path:hover{stroke-width:8}</style>
<ellipse fill="#f31616" stroke="black" cx="751.73" cy="-406.92" rx="54.39" ry="21.43"/>
<text text-anchor="middle" x="751.73" y="-409.92" font-family="Helvetica,sans-Serif" font-size="10.00" fill="#ffffff">comfoclime.</text>
<text text-anchor="middle" x="751.73" y="-398.92" font-family="Helvetica,sans-Serif" font-size="10.00" fill="#ffffff">constants</text>
</g>
<!-- comfoclime_constants&#45;&gt;comfoclime_climate -->
<g id="edge15" class="edge">
<title>comfoclime_constants&#45;&gt;comfoclime_climate</title><style>.edge>path:hover{stroke-width:8}</style>
<path fill="none" stroke="black" d="M855.73,-249.07C855.83,-215.1 830.5,-195.38 855.73,-172.64"/>
</g>
<!-- comfoclime_constants&#45;&gt;comfoclime_comfoclime_api -->
<g id="edge16" class="edge">
<title>comfoclime_constants&#45;&gt;comfoclime_comfoclime_api</title><style>.edge>path:hover{stroke-width:8}</style>
<path fill="none" stroke="black" d="M647.73,-327.49C636.64,-315.22 636.35,-296.77 638.97,-281.07"/>
<polygon fill="#f31616" stroke="black" points="642.41,-281.75 641.03,-271.25 635.56,-280.32 642.41,-281.75"/>
</g>
<!-- comfoclime_constants&#45;&gt;comfoclime_coordinator -->
<g id="edge17" class="edge">
<title>comfoclime_constants&#45;&gt;comfoclime_coordinator</title><style>.edge>path:hover{stroke-width:8}</style>
<path fill="none" stroke="black" d="M722.21,-388.76C705.29,-378.35 684.04,-364.3 666.73,-349.71 657.3,-341.76 655.99,-338.64 647.73,-329.49"/>
<path fill="none" stroke="black" d="M647.73,-327.49C611.4,-287.28 544.89,-304.69 552.73,-251.07"/>
</g>
<!-- comfoclime_constants&#45;&gt;comfoclime_fan -->
<g id="edge18" class="edge">
<title>comfoclime_constants&#45;&gt;comfoclime_fan</title><style>.edge>path:hover{stroke-width:8}</style>
<path fill="none" stroke="black" d="M787.37,-390.6C804.88,-381.27 824.75,-367.66 836.73,-349.71 861.51,-312.57 861.02,-295.4 855.73,-251.07"/>
<path fill="none" stroke="black" d="M855.73,-249.07C854.3,-223.36 847.88,-217.85 841.73,-192.85 835.76,-168.63 829.06,-141.03 824.25,-121.2"/>
<polygon fill="#f31616" stroke="black" points="827.62,-120.22 821.86,-111.33 820.81,-121.87 827.62,-120.22"/>
</g>
<!-- comfoclime_rate_limiter_cache -->
<g id="node13" class="node">
<title>comfoclime_rate_limiter_cache</title><style>.edge>path:hover{stroke-width:8}</style>
<ellipse fill="#c04040" stroke="black" cx="751.73" cy="-328.49" rx="75.82" ry="21.43"/>
<text text-anchor="middle" x="751.73" y="-331.49" font-family="Helvetica,sans-Serif" font-size="10.00" fill="#ffffff">comfoclime.</text>
<text text-anchor="middle" x="751.73" y="-320.49" font-family="Helvetica,sans-Serif" font-size="10.00" fill="#ffffff">rate_limiter_cache</text>
</g>
<!-- comfoclime_constants&#45;&gt;comfoclime_rate_limiter_cache -->
<g id="edge19" class="edge">
<title>comfoclime_constants&#45;&gt;comfoclime_rate_limiter_cache</title><style>.edge>path:hover{stroke-width:8}</style>
<path fill="none" stroke="black" d="M751.73,-385.44C751.73,-377.58 751.73,-368.44 751.73,-359.84"/>
<polygon fill="#f31616" stroke="black" points="755.23,-359.76 751.73,-349.76 748.23,-359.76 755.23,-359.76"/>
</g>
<!-- comfoclime_coordinator&#45;&gt;comfoclime -->
<g id="edge20" class="edge">
<title>comfoclime_coordinator&#45;&gt;comfoclime</title><style>.edge>path:hover{stroke-width:8}</style>
<path fill="none" stroke="black" d="M609.95,-157.53C651.19,-144 709.39,-123.63 715.73,-114.43 726.42,-98.89 728.15,-86.18 715.73,-72 692.82,-45.85 464.52,-28.34 363.92,-21.83"/>
<polygon fill="#db0505" stroke="black" points="363.93,-18.32 353.73,-21.18 363.49,-25.31 363.93,-18.32"/>
</g>
<!-- comfoclime_coordinator&#45;&gt;comfoclime_climate -->
<g id="edge21" class="edge">
<title>comfoclime_coordinator&#45;&gt;comfoclime_climate</title><style>.edge>path:hover{stroke-width:8}</style>
<path fill="none" stroke="black" d="M609.95,-157.74C619.35,-155.08 629.33,-152.47 638.73,-150.43 745.41,-127.23 776.7,-144.24 881.73,-114.43 881.83,-114.4 881.93,-114.37 882.03,-114.34"/>
<polygon fill="#db0505" stroke="black" points="883.17,-117.65 891.59,-111.22 881,-111 883.17,-117.65"/>
</g>
<!-- comfoclime_coordinator&#45;&gt;comfoclime_fan -->
<g id="edge22" class="edge">
<title>comfoclime_coordinator&#45;&gt;comfoclime_fan</title><style>.edge>path:hover{stroke-width:8}</style>
<path fill="none" stroke="black" d="M610.4,-157.85C654.26,-144.39 723.2,-123.23 769.41,-109.04"/>
<polygon fill="#db0505" stroke="black" points="770.66,-112.32 779.19,-106.04 768.6,-105.63 770.66,-112.32"/>
</g>
<!-- comfoclime_coordinator&#45;&gt;comfoclime_number -->
<g id="edge23" class="edge">
<title>comfoclime_coordinator&#45;&gt;comfoclime_number</title><style>.edge>path:hover{stroke-width:8}</style>
<path fill="none" stroke="black" d="M557.43,-150.56C552.69,-142.13 547.09,-132.18 541.92,-123"/>
<polygon fill="#db0505" stroke="black" points="544.9,-121.16 536.95,-114.16 538.8,-124.59 544.9,-121.16"/>
</g>
<!-- comfoclime_coordinator&#45;&gt;comfoclime_select -->
<g id="edge24" class="edge">
<title>comfoclime_coordinator&#45;&gt;comfoclime_select</title><style>.edge>path:hover{stroke-width:8}</style>
<path fill="none" stroke="black" d="M589.49,-151.75C600.07,-142.12 613.09,-130.28 624.56,-119.84"/>
<polygon fill="#db0505" stroke="black" points="627.16,-122.21 632.2,-112.89 622.45,-117.03 627.16,-122.21"/>
</g>
<!-- comfoclime_coordinator&#45;&gt;comfoclime_sensor -->
<g id="edge25" class="edge">
<title>comfoclime_coordinator&#45;&gt;comfoclime_sensor</title><style>.edge>path:hover{stroke-width:8}</style>
<path fill="none" stroke="black" d="M522.64,-160.09C462.08,-146.24 355.8,-121.92 290.69,-107.02"/>
<polygon fill="#db0505" stroke="black" points="291.14,-103.53 280.61,-104.71 289.58,-110.36 291.14,-103.53"/>
</g>
<!-- comfoclime_coordinator&#45;&gt;comfoclime_switch -->
<g id="edge26" class="edge">
<title>comfoclime_coordinator&#45;&gt;comfoclime_switch</title><style>.edge>path:hover{stroke-width:8}</style>
<path fill="none" stroke="black" d="M534.32,-155.17C507.91,-143.3 471.25,-126.82 442.71,-113.99"/>
<polygon fill="#db0505" stroke="black" points="443.92,-110.7 433.37,-109.79 441.05,-117.08 443.92,-110.7"/>
</g>
<!-- comfoclime_entity_helper -->
<g id="node9" class="node">
<title>comfoclime_entity_helper</title><style>.edge>path:hover{stroke-width:8}</style>
<ellipse fill="#f91010" stroke="black" cx="359.73" cy="-171.64" rx="57.05" ry="21.43"/>
<text text-anchor="middle" x="359.73" y="-174.64" font-family="Helvetica,sans-Serif" font-size="10.00" fill="#ffffff">comfoclime.</text>
<text text-anchor="middle" x="359.73" y="-163.64" font-family="Helvetica,sans-Serif" font-size="10.00" fill="#ffffff">entity_helper</text>
</g>
<!-- comfoclime_entity_helper&#45;&gt;comfoclime -->
<g id="edge27" class="edge">
<title>comfoclime_entity_helper&#45;&gt;comfoclime</title><style>.edge>path:hover{stroke-width:8}</style>
<path fill="none" stroke="black" d="M350.03,-150.72C345.18,-140.14 339.55,-126.79 335.73,-114.43 328.73,-91.82 323.71,-65.39 320.58,-46.08"/>
<polygon fill="#f91010" stroke="black" points="324.04,-45.5 319.05,-36.16 317.12,-46.58 324.04,-45.5"/>
</g>
<!-- comfoclime_entity_helper&#45;&gt;comfoclime_config_flow -->
<g id="edge28" class="edge">
<title>comfoclime_entity_helper&#45;&gt;comfoclime_config_flow</title><style>.edge>path:hover{stroke-width:8}</style>
<path fill="none" stroke="black" d="M314.25,-158.61C262.92,-145.04 179.48,-122.97 124.84,-108.52"/>
<polygon fill="#f91010" stroke="black" points="125.55,-105.09 114.99,-105.92 123.76,-111.86 125.55,-105.09"/>
</g>
<!-- comfoclime_entity_helper&#45;&gt;comfoclime_number -->
<g id="edge29" class="edge">
<title>comfoclime_entity_helper&#45;&gt;comfoclime_number</title><style>.edge>path:hover{stroke-width:8}</style>
<path fill="none" stroke="black" d="M394.53,-154.62C420.12,-142.83 455.08,-126.74 482.48,-114.12"/>
<polygon fill="#f91010" stroke="black" points="484.21,-117.18 491.82,-109.82 481.28,-110.82 484.21,-117.18"/>
</g>
<!-- comfoclime_entity_helper&#45;&gt;comfoclime_select -->
<g id="edge30" class="edge">
<title>comfoclime_entity_helper&#45;&gt;comfoclime_select</title><style>.edge>path:hover{stroke-width:8}</style>
<path fill="none" stroke="black" d="M407.77,-159.81C454.27,-149.1 526.64,-131.83 588.73,-114.43 593.26,-113.16 597.95,-111.78 602.64,-110.37"/>
<polygon fill="#f91010" stroke="black" points="603.68,-113.72 612.22,-107.45 601.63,-107.02 603.68,-113.72"/>
</g>
<!-- comfoclime_entity_helper&#45;&gt;comfoclime_sensor -->
<g id="edge31" class="edge">
<title>comfoclime_entity_helper&#45;&gt;comfoclime_sensor</title><style>.edge>path:hover{stroke-width:8}</style>
<path fill="none" stroke="black" d="M331.05,-153.11C313.38,-142.3 290.54,-128.34 271.54,-116.72"/>
<polygon fill="#f91010" stroke="black" points="273.2,-113.63 262.84,-111.4 269.55,-119.6 273.2,-113.63"/>
</g>
<!-- comfoclime_entity_helper&#45;&gt;comfoclime_switch -->
<g id="edge32" class="edge">
<title>comfoclime_entity_helper&#45;&gt;comfoclime_switch</title><style>.edge>path:hover{stroke-width:8}</style>
<path fill="none" stroke="black" d="M369.97,-150.56C374.23,-142.22 379.25,-132.39 383.89,-123.28"/>
<polygon fill="#f91010" stroke="black" points="387.12,-124.66 388.55,-114.16 380.88,-121.48 387.12,-124.66"/>
</g>
<!-- comfoclime_models -->
<g id="node11" class="node">
<title>comfoclime_models</title><style>.edge>path:hover{stroke-width:8}</style>
<ellipse fill="#db2f2f" stroke="black" cx="518.73" cy="-406.92" rx="54.39" ry="21.43"/>
<text text-anchor="middle" x="518.73" y="-409.92" font-family="Helvetica,sans-Serif" font-size="10.00" fill="#ffffff">comfoclime.</text>
<text text-anchor="middle" x="518.73" y="-398.92" font-family="Helvetica,sans-Serif" font-size="10.00" fill="#ffffff">models</text>
</g>
<!-- comfoclime_models&#45;&gt;comfoclime_api_decorators -->
<g id="edge33" class="edge">
<title>comfoclime_models&#45;&gt;comfoclime_api_decorators</title><style>.edge>path:hover{stroke-width:8}</style>
<path fill="none" stroke="black" d="M518.73,-385.44C518.73,-377.58 518.73,-368.44 518.73,-359.84"/>
<polygon fill="#db2f2f" stroke="black" points="522.23,-359.76 518.73,-349.76 515.23,-359.76 522.23,-359.76"/>
</g>
<!-- comfoclime_models&#45;&gt;comfoclime_comfoclime_api -->
<g id="edge34" class="edge">
<title>comfoclime_models&#45;&gt;comfoclime_comfoclime_api</title><style>.edge>path:hover{stroke-width:8}</style>
<path fill="none" stroke="black" d="M546.12,-388.33C560.52,-378.19 577.82,-364.54 590.73,-349.71 608.88,-328.84 624.21,-301.33 634.38,-280.67"/>
<polygon fill="#db2f2f" stroke="black" points="637.65,-281.95 638.82,-271.42 631.34,-278.92 637.65,-281.95"/>
</g>
<!-- comfoclime_models&#45;&gt;comfoclime_coordinator -->
<g id="edge35" class="edge">
<title>comfoclime_models&#45;&gt;comfoclime_coordinator</title><style>.edge>path:hover{stroke-width:8}</style>
<path fill="none" stroke="black" d="M486.42,-389.66C471.41,-380.23 455.07,-366.81 446.73,-349.71 438.46,-332.76 437.01,-323.44 446.73,-307.28 474.22,-261.59 542.39,-303.38 552.73,-251.07"/>
<path fill="none" stroke="black" d="M552.73,-249.07C554.96,-233.78 558.38,-216.96 561.48,-203"/>
<polygon fill="#db2f2f" stroke="black" points="564.96,-203.48 563.76,-192.95 558.13,-201.93 564.96,-203.48"/>
</g>
<!-- comfoclime_rate_limiter_cache&#45;&gt;comfoclime_comfoclime_api -->
<g id="edge36" class="edge">
<title>comfoclime_rate_limiter_cache&#45;&gt;comfoclime_comfoclime_api</title><style>.edge>path:hover{stroke-width:8}</style>
<path fill="none" stroke="black" d="M725.75,-308.4C712.37,-298.57 695.9,-286.47 681.54,-275.91"/>
<polygon fill="#c04040" stroke="black" points="683.5,-273.01 673.37,-269.91 679.36,-278.65 683.5,-273.01"/>
</g>
<!-- comfoclime_validators -->
<g id="node17" class="node">
<title>comfoclime_validators</title><style>.edge>path:hover{stroke-width:8}</style>
<ellipse fill="#db2f2f" stroke="black" cx="208.73" cy="-328.49" rx="54.39" ry="21.43"/>
<text text-anchor="middle" x="208.73" y="-331.49" font-family="Helvetica,sans-Serif" font-size="10.00" fill="#ffffff">comfoclime.</text>
<text text-anchor="middle" x="208.73" y="-320.49" font-family="Helvetica,sans-Serif" font-size="10.00" fill="#ffffff">validators</text>
</g>
<!-- comfoclime_validators&#45;&gt;comfoclime -->
<g id="edge37" class="edge">
<title>comfoclime_validators&#45;&gt;comfoclime</title><style>.edge>path:hover{stroke-width:8}</style>
<path fill="none" stroke="black" d="M181.76,-310.04C146.08,-284.87 85.93,-234.54 70.73,-172.64"/>
<path fill="none" stroke="black" d="M70.73,-170.64C52.54,-137.82 23.07,-148.67 7.73,-114.43 0.02,-97.22 -4.43,-86.42 7.73,-72 40.67,-32.92 191.6,-22.66 269.66,-19.96"/>
<polygon fill="#db2f2f" stroke="black" points="269.83,-23.46 279.71,-19.64 269.61,-16.46 269.83,-23.46"/>
</g>
<!-- comfoclime_validators&#45;&gt;comfoclime_comfoclime_api -->
<g id="edge38" class="edge">
<title>comfoclime_validators&#45;&gt;comfoclime_comfoclime_api</title><style>.edge>path:hover{stroke-width:8}</style>
<path fill="none" stroke="black" d="M259.67,-320.94C329.33,-311.66 458.05,-293.33 566.73,-271.28 573.5,-269.9 580.57,-268.34 587.57,-266.71"/>
<polygon fill="#db2f2f" stroke="black" points="588.85,-270 597.76,-264.27 587.22,-263.19 588.85,-270"/>
</g>
<!-- comfoclime_validators&#45;&gt;comfoclime_config_flow -->
<g id="edge39" class="edge">
<title>comfoclime_validators&#45;&gt;comfoclime_config_flow</title><style>.edge>path:hover{stroke-width:8}</style>
<path fill="none" stroke="black" d="M70.73,-170.64C67.09,-155.85 66.72,-138.97 67.41,-124.83"/>
<polygon fill="#db2f2f" stroke="black" points="70.92,-124.86 68.11,-114.64 63.93,-124.38 70.92,-124.86"/>
</g>
</g>
</svg>
